Coordinates
version=1
nRows=5
nColumns=114
inDegrees=yes

Units are S.I. units (second, meters, Newtons, ...)
If the header above contains a line with 'inDegrees', this indicates whether rotational values are in degrees (yes) or radians (no).

endheader 
time	pelvis_tilt	pelvis_list	pelvis_rotation	pelvis_tx	pelvis_ty	pelvis_tz	hip_flexion_l	hip_adduction_l	hip_rotation_l	hip_flexion_r	hip_adduction_r	hip_rotation_r	knee_angle_l	knee_angle_r	ankle_angle_l	ankle_angle_r	subtalar_angle_l	subtalar_angle_r	mtp_angle_l	mtp_angle_r	lumbar_extension	lumbar_bending	lumbar_rotation	arm_flex_l	arm_add_l	arm_rot_l	arm_flex_r	arm_add_r	arm_rot_r	elbow_flex_l	elbow_flex_r	pro_sup_l	pro_sup_r	addbrev_l/activation	addlong_l/activation	addmagDist_l/activation	addmagIsch_l/activation	addmagMid_l/activation	addmagProx_l/activation	bflh_l/activation	bfsh_l/activation	edl_l/activation	ehl_l/activation	fdl_l/activation	fhl_l/activation	gaslat_l/activation	gasmed_l/activation	glmax1_l/activation	glmax2_l/activation	glmax3_l/activation	glmed1_l/activation	glmed2_l/activation	glmed3_l/activation	glmin1_l/activation	glmin2_l/activation	glmin3_l/activation	grac_l/activation	iliacus_l/activation	perbrev_l/activation	perlong_l/activation	piri_l/activation	psoas_l/activation	recfem_l/activation	sart_l/activation	semimem_l/activation	semiten_l/activation	soleus_l/activation	tfl_l/activation	tibant_l/activation	tibpost_l/activation	vasint_l/activation	vaslat_l/activation	vasmed_l/activation	addbrev_r/activation	addlong_r/activation	addmagDist_r/activation	addmagIsch_r/activation	addmagMid_r/activation	addmagProx_r/activation	bflh_r/activation	bfsh_r/activation	edl_r/activation	ehl_r/activation	fdl_r/activation	fhl_r/activation	gaslat_r/activation	gasmed_r/activation	glmax1_r/activation	glmax2_r/activation	glmax3_r/activation	glmed1_r/activation	glmed2_r/activation	glmed3_r/activation	glmin1_r/activation	glmin2_r/activation	glmin3_r/activation	grac_r/activation	iliacus_r/activation	perbrev_r/activation	perlong_r/activation	piri_r/activation	psoas_r/activation	recfem_r/activation	sart_r/activation	semimem_r/activation	semiten_r/activation	soleus_r/activation	tfl_r/activation	tibant_r/activation	tibpost_r/activation	vasint_r/activation	vaslat_r/activation	vasmed_r/activation	
          1.10000000	         -8.97123370	         -3.43807476	        -42.04185466	          1.16734466	          0.95162308	          0.20886727	         11.74974780	         -5.44255556	          0.25736107	         40.67371995	         -1.92596115	        -13.38733907	         16.20654350	         63.27734286	         -0.67639623	         -3.11781272	         -9.99685114	        -17.20690051	        -14.79809220	         -1.17889237	        -21.14706152	         13.63329525	          4.12347457	         27.69937386	        -13.22744042	         19.44803213	         -8.78522845	        -30.19202490	          9.41040105	         94.30050803	        111.20815102	         94.28617296	         83.65684840	          0.01019813	          0.01017400	          0.01008844	          0.01007190	          0.01011968	          0.01033491	          0.01023314	          0.28810127	          0.28584450	          0.04819560	          0.01023911	          0.01011283	          0.08964917	          0.57859265	          0.07533001	          0.01028040	          0.01006532	          0.25757983	          0.30866443	          0.44063989	          0.10670956	          0.21237755	          0.28436676	          0.01220322	          0.23241558	          0.36489503	          0.56691274	          0.41069256	          0.22846205	          0.09909099	          0.35466260	          0.01748084	          0.01220896	          0.04152604	          0.19049544	          0.08163851	          0.01004305	          0.01726337	          0.03634572	          0.02078972	          0.01053777	          0.01033999	          0.01041614	          0.01041593	          0.01056322	          0.01340613	          0.05061057	          0.08200518	          0.07389494	          0.03296677	          0.01198776	          0.01100173	          0.01956770	          0.02790910	          0.01735532	          0.02370460	          0.01046842	          0.01288088	          0.01718639	          0.02229841	          0.01044798	          0.01119093	          0.01586322	          0.01514564	          0.01389091	          0.03704209	          0.05049504	          0.14360351	          0.02089025	          0.01170383	          0.12493402	          0.06053793	          0.02414064	          0.01012297	          0.01227853	          0.10074678	          0.01060212	          0.01023159	          0.01007779	          0.01015954	
          1.11000000	         -9.22942304	         -3.16637704	        -42.03711662	          1.16729580	          0.95353485	          0.20936808	         12.50862929	         -5.40842640	          0.24298288	         39.52551376	         -1.64844882	        -13.38149167	         16.63899454	         60.73384320	         -1.86098752	         -3.40765711	        -10.81720159	        -17.13492027	        -14.89505693	         -1.03278848	        -21.19977436	         13.62705949	          4.15307848	         24.67837756	        -13.74096290	         18.67220860	         -9.15143545	        -30.75022799	          8.77593289	         97.07396098	        113.40060952	         94.31493344	         84.05880320	          0.01017838	          0.01014041	          0.01009775	          0.01008017	          0.01012597	          0.01032084	          0.01037773	          0.26700182	          0.24890065	          0.04018593	          0.01019875	          0.01010878	          0.26560140	          0.77481433	          0.08536873	          0.01593075	          0.01008421	          0.24470821	          0.32721523	          0.50100073	          0.09100372	          0.21033888	          0.28135660	          0.01157128	          0.19384723	          0.36086839	          0.55387636	          0.41179942	          0.19064285	          0.08257943	          0.29809705	          0.09784668	          0.01401512	          0.03460683	          0.18930650	          0.06803715	          0.01004870	          0.01439162	          0.03028888	          0.01732730	          0.01082946	          0.01035678	          0.01748768	          0.01140794	          0.01589549	          0.02019376	          0.09577898	          0.06840611	          0.06408743	          0.03063647	          0.01151532	          0.01055906	          0.01633465	          0.02327147	          0.04614356	          0.06044157	          0.03652050	          0.01077265	          0.01440731	          0.01997675	          0.01026969	          0.01042189	          0.01350886	          0.01311455	          0.01165122	          0.03187971	          0.04286302	          0.15746961	          0.01744520	          0.01174654	          0.10417519	          0.05048955	          0.02028072	          0.01006488	          0.01041800	          0.09421828	          0.01028975	          0.01918502	          0.02020514	          0.01955964	
          1.12000000	         -9.37198640	         -2.85898309	        -42.05668051	          1.16707690	          0.95502339	          0.21050719	         13.22882443	         -5.28648498	          0.03464227	         38.21714537	         -1.37137230	        -13.28135323	         17.18754189	         58.12473017	         -3.13588894	         -3.55932473	        -11.74877976	        -16.91135833	        -15.36910113	         -0.91005421	        -21.25178911	         13.39857651	          3.88513303	         20.93470235	        -14.55598570	         17.09636424	         -9.19946798	        -31.19120031	          8.98950016	         99.38937679	        114.21655752	         94.71202080	         84.77896826	          0.01018347	          0.01014558	          0.01010062	          0.01008175	          0.01013081	          0.01033435	          0.01193921	          0.26365575	          0.20743231	          0.03350628	          0.01015343	          0.01005844	          0.45777811	          0.73133495	          0.07129833	          0.01452450	          0.01008535	          0.24280732	          0.33224336	          0.47880204	          0.08547552	          0.19616685	          0.27695203	          0.01211198	          0.16197175	          0.33070429	          0.54992324	          0.40174829	          0.15976941	          0.06881839	          0.34407679	          0.08165094	          0.01508096	          0.03741138	          0.19862608	          0.05670212	          0.01003453	          0.01200184	          0.02524157	          0.01444256	          0.01064341	          0.01029831	          0.01959907	          0.01269767	          0.01523197	          0.01733432	          0.26958168	          0.05708813	          0.05352709	          0.02630352	          0.01678915	          0.01401228	          0.01366329	          0.01941731	          0.08722178	          0.07317639	          0.03058852	          0.01014453	          0.01224670	          0.02279570	          0.01035438	          0.01060615	          0.01242208	          0.01136424	          0.01024769	          0.02679484	          0.03578527	          0.18036046	          0.01457477	          0.01225441	          0.08688584	          0.04210767	          0.01707613	          0.01019830	          0.01046312	          0.07915430	          0.01568728	          0.01708119	          0.01716918	          0.01709303	
          1.13000000	         -9.40420649	         -2.59325358	        -42.11176194	          1.16684564	          0.95626732	          0.21234745	         13.84507218	         -5.14375117	         -0.35089698	         36.58300362	         -1.04937203	        -13.19419646	         17.81913501	         55.27301464	         -4.58802585	         -3.67476599	        -12.80623789	        -16.45663660	        -16.31036973	         -0.80898738	        -21.32152883	         13.01152949	          3.46286542	         16.74559110	        -15.52353147	         15.03709914	         -9.10441365	        -31.49039219	          9.75778775	        100.83670533	        113.47518161	         95.41711545	         85.65938128	          0.01016021	          0.01011665	          0.01010535	          0.01008798	          0.01012908	          0.01030038	          0.01035120	          0.22443636	          0.17287344	          0.02793311	          0.01024437	          0.01040875	          0.38151287	          0.60946144	          0.05948982	          0.01277051	          0.01009832	          0.27399873	          0.34792834	          0.41333655	          0.08187213	          0.21802979	          0.27282388	          0.01101845	          0.13538599	          0.27588697	          0.48253899	          0.35719301	          0.13399501	          0.05738060	          0.29093686	          0.06807297	          0.01273566	          0.09094258	          0.20437365	          0.04725468	          0.01005483	          0.01005586	          0.02103559	          0.01204023	          0.01045658	          0.01020470	          0.01734597	          0.01654507	          0.01394785	          0.01476025	          0.22490950	          0.04777720	          0.11393336	          0.02295659	          0.01523250	          0.01352243	          0.01448177	          0.01668492	          0.12916411	          0.06120266	          0.02555471	          0.01024623	          0.01294475	          0.14111062	          0.01041044	          0.01079618	          0.01480879	          0.01707793	          0.01014800	          0.02265439	          0.03789694	          0.20792982	          0.01218981	          0.01025213	          0.07253265	          0.12681824	          0.04824596	          0.01114123	          0.01026719	          0.13230881	          0.01395285	          0.01430036	          0.01432990	          0.01429097	
          1.14000000	         -9.32061093	         -2.41185139	        -42.22476151	          1.16668596	          0.95742618	          0.21485086	         14.37676656	         -5.00079725	         -0.74508268	         34.50847396	         -0.68218227	        -13.23220218	         18.64875550	         52.05688615	         -6.14355476	         -3.88342023	        -14.11834062	        -15.71675764	        -17.62274655	         -0.71828365	        -21.45252663	         12.47462278	          3.16628664	         12.60963823	        -16.40122587	         13.22471855	         -9.47744215	        -31.59806959	         10.48145465	        101.05817921	        111.22064198	         95.77320932	         85.71034890	          0.01012524	          0.01010514	          0.01005791	          0.01004479	          0.01008057	          0.01023325	          0.01008247	          0.24247192	          0.14408027	          0.02329246	          0.01348813	          0.01506112	          0.31793688	          0.50789063	          0.04961388	          0.01076448	          0.01004303	          0.33051824	          0.31379808	          0.34456990	          0.11799214	          0.24397984	          0.24503664	          0.01091900	          0.19516492	          0.23414928	          0.47608071	          0.29769254	          0.14221702	          0.04781849	          0.30641842	          0.05678563	          0.01081296	          0.07579150	          0.17304666	          0.03938421	          0.01258434	          0.01002604	          0.01753069	          0.01004233	          0.01025341	          0.01013141	          0.01461623	          0.01404645	          0.01195459	          0.01256975	          0.18747487	          0.04019705	          0.14086353	          0.05654766	          0.01315723	          0.01153797	          0.02374670	          0.04218508	          0.10782212	          0.05104714	          0.02132484	          0.01025052	          0.01809931	          0.12537686	          0.01040757	          0.01111473	          0.04113007	          0.01838902	          0.01019587	          0.05339795	          0.05420578	          0.22715645	          0.01033733	          0.01008070	          0.06489235	          0.17325276	          0.04032402	          0.01006407	          0.01025595	          0.15551988	          0.01176108	          0.01197025	          0.01195996	          0.01194709	
